<svg width="22" height="27" viewBox="0 0 22 27" fill="none" xmlns="http://www.w3.org/2000/svg">
<path d="M21.6267 17.3133L20.8667 11.7666C20.2401 7.13995 16.6667 3.55329 12.3201 2.93995V1.51336C12.3201 0.780023 11.7201 0.180023 10.9868 0.180023C10.2534 0.180023 9.65342 0.780023 9.65342 1.51336V2.93995C5.30675 3.56662 1.76007 7.13995 1.12007 11.7666L0.360083 17.3133C0.160083 18.7533 0.586736 20.1934 1.5334 21.26C2.42674 22.2734 3.69342 22.86 5.02675 22.86H6.42675C6.72009 25.0866 8.61341 26.82 10.9201 26.82C13.2267 26.82 15.1201 25.0866 15.4134 22.86H16.9201C18.2534 22.86 19.5201 22.2734 20.4134 21.26C21.3601 20.18 21.7867 18.74 21.5867 17.3133H21.6267ZM10.9468 24.1667C10.1068 24.1667 9.4134 23.62 9.16007 22.8733H12.7334C12.4801 23.62 11.7868 24.1667 10.9468 24.1667ZM18.4401 19.5134C18.0534 19.9534 17.5201 20.2066 16.9468 20.2066H5.04008C4.46674 20.2066 3.94675 19.9667 3.54675 19.5134C3.12008 19.02 2.92007 18.34 3.0134 17.6734L3.77341 12.1266C4.28008 8.3533 7.38674 5.50001 11.0001 5.50001C14.6134 5.50001 17.7067 8.3533 18.2267 12.1266L18.9867 17.6734C19.0801 18.34 18.8801 19.02 18.4534 19.5134H18.4401Z" fill="#676A71"/>
</svg>
