<svg width="25" height="25" viewBox="0 0 25 25" fill="none" xmlns="http://www.w3.org/2000/svg">
<path d="M17.3467 0.5H6.66667C2.98667 0.5 0 3.48667 0 7.16667V17.8467C0 21.5267 2.98667 24.5133 6.66667 24.5133H17.3467C21.0267 24.5133 24.0133 21.5267 24.0133 17.8467V7.16667C24.0133 3.48667 21.0267 0.5 17.3467 0.5ZM11.16 12.46L9.33333 13.3534V3.16667H14.68V13.3534L12.8533 12.46C12.32 12.1933 11.6933 12.1933 11.16 12.46ZM21.3467 17.8333C21.3467 20.0333 19.5467 21.8333 17.3467 21.8333H6.66667C4.46667 21.8333 2.66667 20.0333 2.66667 17.8333V7.15332C2.66667 4.95332 4.45332 3.16665 6.65332 3.15332V14.5533C6.65332 15.2066 6.98667 15.8067 7.54667 16.1667C8.12 16.5267 8.81333 16.5534 9.41333 16.2734L11.9867 15.02L14.56 16.2734C14.8266 16.4067 15.12 16.4733 15.4 16.4733C15.76 16.4733 16.1067 16.38 16.4267 16.18C16.9867 15.8333 17.32 15.2333 17.32 14.5666V3.16667C19.52 3.16667 21.32 4.96667 21.32 7.16667V17.8467L21.3467 17.8333Z" fill="#676A71"/>
</svg>
