<svg width="22" height="27" viewBox="0 0 22 27" fill="none" xmlns="http://www.w3.org/2000/svg">
<path d="M16.5999 9.50002H16.3333V5.50002C16.3333 2.55335 13.9466 0.166687 10.9999 0.166687C8.05325 0.166687 5.66658 2.55335 5.66658 5.50002V9.50002H5.3999C2.5999 9.50002 0.333252 11.78 0.333252 14.5667V21.7534C0.333252 24.5534 2.61324 26.82 5.3999 26.82H16.5866C19.3866 26.82 21.6532 24.54 21.6532 21.7534V14.5667C21.6532 11.7667 19.3733 9.50002 16.5866 9.50002H16.5999ZM8.33325 5.50002C8.33325 4.03335 9.53325 2.83335 10.9999 2.83335C12.4666 2.83335 13.6666 4.03335 13.6666 5.50002V9.50002H8.33325V5.50002ZM18.9999 21.7667C18.9999 23.0867 17.9199 24.1667 16.5999 24.1667H5.41325C4.09325 24.1667 3.01326 23.0867 3.01326 21.7667V14.58C3.01326 13.26 4.09325 12.18 5.41325 12.18H16.5999C17.9199 12.18 18.9999 13.26 18.9999 14.58V21.7667Z" fill="#676A71"/>
</svg>
