<svg width="18" height="22" viewBox="0 0 18 22" fill="none" xmlns="http://www.w3.org/2000/svg">
<path d="M7.79986 20.98C7.98652 21.1666 8.21319 21.2866 8.45319 21.3666C8.62652 21.4466 8.81319 21.5 9.0132 21.5C9.21319 21.5 9.39986 21.4466 9.55986 21.3666C9.79986 21.2866 10.0265 21.1666 10.2132 20.98L17.2132 13.9666C17.7332 13.4466 17.7332 12.6066 17.2132 12.0866C16.6932 11.5666 15.8532 11.5666 15.3332 12.0866L10.3599 17.0866V1.51333C10.3599 0.779993 9.77319 0.179993 9.02652 0.179993C8.27985 0.179993 7.69319 0.779993 7.69319 1.51333V17.0866L2.70652 12.0999C2.18652 11.5799 1.34652 11.5799 0.826523 12.0999C0.306523 12.6199 0.306523 13.46 0.826523 13.98L7.82652 20.9933L7.79986 20.98Z" fill="#676A71"/>
</svg>
