<svg width="20" height="26" viewBox="0 0 20 26" fill="none" xmlns="http://www.w3.org/2000/svg">
<path d="M10.0001 12.1667C13.3067 12.1667 16.0001 9.47332 16.0001 6.16666C16.0001 2.85999 13.3067 0.166656 10.0001 0.166656C6.69341 0.166656 4.00008 2.85999 4.00008 6.16666C4.00008 9.47332 6.69341 12.1667 10.0001 12.1667ZM10.0001 2.83332C11.8401 2.83332 13.3334 4.32666 13.3334 6.16666C13.3334 8.00666 11.8401 9.49999 10.0001 9.49999C8.16008 9.49999 6.66675 8.00666 6.66675 6.16666C6.66675 4.32666 8.16008 2.83332 10.0001 2.83332Z" fill="#009CB4"/>
<path d="M14.0001 13.5H6.00008C3.05341 13.5 0.666748 15.8867 0.666748 18.8333V20.1667C0.666748 23.1133 3.05341 25.5 6.00008 25.5H14.0001C16.9467 25.5 19.3334 23.1133 19.3334 20.1667V18.8333C19.3334 15.8867 16.9467 13.5 14.0001 13.5ZM16.6667 20.1667C16.6667 21.6333 15.4667 22.8333 14.0001 22.8333H6.00008C4.53341 22.8333 3.33341 21.6333 3.33341 20.1667V18.8333C3.33341 17.3667 4.53341 16.1667 6.00008 16.1667H14.0001C15.4667 16.1667 16.6667 17.3667 16.6667 18.8333V20.1667Z" fill="#009CB4"/>
</svg>
