<svg width="25" height="25" viewBox="0 0 25 25" fill="none" xmlns="http://www.w3.org/2000/svg">
<path d="M23.84 8.11328L17.2666 1.53996C16.6 0.873291 15.6933 0.5 14.7466 0.5H8.89331C4.47998 0.5 0.893311 4.08667 0.893311 8.5V16.5C0.893311 20.9133 4.47998 24.5 8.89331 24.5H16.8933C21.3066 24.5 24.8933 20.9133 24.8933 16.5V10.6466C24.8933 9.69998 24.52 8.79329 23.8533 8.12663L23.84 8.11328ZM16.5466 4.59334L20.8 8.84668H18.68C17.5066 8.84668 16.5466 7.95335 16.5466 6.84668V4.59334ZM16.88 21.82H8.87996C5.9333 21.82 3.54663 19.4333 3.54663 16.4867V8.48665C3.54663 5.53999 5.9333 3.15332 8.87996 3.15332H13.8666V6.84668C13.8666 9.42001 16.0266 11.5133 18.6666 11.5133H22.2V16.4867C22.2 19.4333 19.8133 21.82 16.8666 21.82H16.88Z" fill="#676A71"/>
</svg>
